<svg width="548" height="264" viewBox="0 0 548 264" fill="none" xmlns="http://www.w3.org/2000/svg">
<path d="M115.757 4.96552C113.966 1.89096 110.676 0 107.117 0H10.0112C2.77936 0 -2.06125 7.43963 0.868668 14.0514L99.9666 237.68C103.223 245.029 113.382 245.726 117.612 238.891L183.703 132.107C185.648 128.964 185.701 125.004 183.84 121.81L115.757 4.96552Z" fill="white"/>
<path d="M113.513 7.50008C112.62 5.95302 110.969 5 109.183 5H9.02023C5.41165 5 2.99136 8.70598 4.44211 12.0101L103.336 237.247C104.959 240.943 110.066 241.292 112.177 237.851L179.809 127.564C180.767 126.001 180.793 124.038 179.876 122.45L113.513 7.50008Z" fill="#FED501"/>
<path d="M265.182 39.4254C269.104 33.2006 278.18 33.2006 282.102 39.4254L413.803 248.419C417.999 255.078 413.214 263.75 405.343 263.75H141.941C134.07 263.75 129.285 255.078 133.481 248.419L265.182 39.4254Z" fill="white"/>
<path d="M269.912 44.7099C271.874 41.5983 276.41 41.5983 278.372 44.7099L408.306 250.834C410.405 254.163 408.012 258.5 404.077 258.5H144.207C140.271 258.5 137.879 254.163 139.978 250.834L269.912 44.7099Z" fill="#FED501"/>
<path d="M273.142 219.5C279.809 219.5 285.142 224.463 285.142 230.5C285.142 236.537 279.809 241.5 273.142 241.5C266.474 241.5 261.142 236.537 261.142 230.5C261.142 224.463 266.474 219.5 273.142 219.5Z" fill="white" stroke="white"/>
<path d="M260.642 84C260.642 76.8203 266.462 71 273.642 71C280.822 71 286.642 76.8203 286.642 84V193C286.642 200.18 280.822 206 273.642 206C266.462 206 260.642 200.18 260.642 193V84Z" fill="white" fill-opacity="0.95"/>
<path d="M431.749 4.96552C433.54 1.89096 436.831 0 440.389 0H537.495C544.727 0 549.567 7.43963 546.637 14.0514L447.54 237.68C444.283 245.029 434.125 245.726 429.894 238.891L363.803 132.107C361.858 128.964 361.805 125.004 363.666 121.81L431.749 4.96552Z" fill="white"/>
<path d="M433.993 7.50008C434.887 5.95302 436.537 5 438.324 5H538.486C542.095 5 544.515 8.70598 543.064 12.0101L444.17 237.247C442.547 240.943 437.44 241.292 435.33 237.851L367.698 127.564C366.739 126.001 366.713 124.038 367.63 122.45L433.993 7.50008Z" fill="#FED501"/>
</svg>
